<svg width="72" height="74" viewBox="0 0 72 74" fill="none" xmlns="http://www.w3.org/2000/svg">
<g clip-path="url(#clip0_50_130)">
<path d="M57.4944 59.111C68.6615 47.6337 68.6615 28.6871 57.5141 17.2301C46.3667 5.77302 27.9125 5.79327 16.7454 17.2706C5.59798 28.7276 5.61767 47.654 16.7651 59.111C27.9125 70.5681 46.347 70.5681 57.4944 59.111ZM39.0008 53.9088C37.9569 54.9816 36.3025 54.9816 35.239 53.8886C34.7663 53.4027 34.4906 52.7145 34.5103 51.9655L34.4906 40.9336L23.7765 40.9336C23.0478 40.9538 22.3782 40.6704 21.9055 40.1846C20.8419 39.0916 20.8616 37.4115 21.9055 36.3386C22.4569 35.7719 23.0675 35.5087 23.7765 35.5087L34.5103 35.4885L34.53 24.416C34.5497 23.6266 34.786 23.0193 35.3178 22.4728C36.3616 21.3999 38.016 21.3999 39.0598 22.4728C39.5522 22.9788 39.7886 23.6266 39.8083 24.416L39.828 35.448L50.5421 35.448C51.2708 35.4682 51.9207 35.7314 52.4131 36.2374C53.4766 37.3305 53.4766 39.0308 52.4131 40.1239C51.8813 40.6704 51.2314 40.9336 50.5027 40.9538L39.828 40.9538L39.828 51.9251C39.8477 52.674 39.5522 53.342 39.0008 53.9088Z" fill="#1C1C1E"/>
</g>
<defs>
<clipPath id="clip0_50_130">
<rect width="72" height="74" fill="white"/>
</clipPath>
</defs>
</svg>
