<svg width="225" height="225" viewBox="0 0 225 225" fill="none" xmlns="http://www.w3.org/2000/svg">
<path fill-rule="evenodd" clip-rule="evenodd" d="M145.312 131.25H137.906L135.281 128.719C144.469 118.031 150 104.156 150 89.0625C150 55.4062 122.719 28.125 89.0625 28.125C55.4062 28.125 28.125 55.4062 28.125 89.0625C28.125 122.719 55.4062 150 89.0625 150C104.156 150 118.031 144.469 128.719 135.281L131.25 137.906V145.312L178.125 192.094L192.094 178.125L145.312 131.25ZM89.0625 131.25C65.7188 131.25 46.875 112.406 46.875 89.0625C46.875 65.7188 65.7188 46.875 89.0625 46.875C112.406 46.875 131.25 65.7188 131.25 89.0625C131.25 112.406 112.406 131.25 89.0625 131.25Z" fill="white" fill-opacity="0.74"/>
</svg>
