<svg width="209" height="209" viewBox="0 0 209 209" fill="none" xmlns="http://www.w3.org/2000/svg">
<path fill-rule="evenodd" clip-rule="evenodd" d="M166.53 112.651C166.843 110.039 167.052 107.322 167.052 104.5C167.052 101.679 166.843 98.9619 166.425 96.3494L184.086 82.5554C185.653 81.3014 186.071 79.0024 185.131 77.2259L168.411 48.2794C167.366 46.3984 165.171 45.7714 163.29 46.3984L142.495 54.7584C138.106 51.4144 133.508 48.6974 128.387 46.6074L125.252 24.4534C124.939 22.3634 123.162 20.9004 121.072 20.9004H87.632C85.542 20.9004 83.87 22.3634 83.5565 24.4534L80.4215 46.6074C75.301 48.6974 70.5985 51.5189 66.314 54.7584L45.5185 46.3984C43.6375 45.6669 41.443 46.3984 40.398 48.2794L23.678 77.2259C22.633 79.1069 23.051 81.3014 24.723 82.5554L42.3835 96.3494C41.9655 98.9619 41.652 101.783 41.652 104.5C41.652 107.217 41.861 110.039 42.279 112.651L24.6185 126.445C23.051 127.699 22.633 129.998 23.5735 131.775L40.2935 160.721C41.3385 162.602 43.533 163.229 45.414 162.602L66.2095 154.242C70.5985 157.586 75.1965 160.303 80.317 162.393L83.452 184.547C83.87 186.637 85.542 188.1 87.632 188.1H121.072C123.162 188.1 124.939 186.637 125.148 184.547L128.283 162.393C133.403 160.303 138.106 157.482 142.39 154.242L163.186 162.602C165.067 163.334 167.261 162.602 168.306 160.721L185.026 131.775C186.071 129.894 185.653 127.699 183.981 126.445L166.53 112.651V112.651ZM104.352 135.85C87.1095 135.85 73.002 121.743 73.002 104.5C73.002 87.2579 87.1095 73.1504 104.352 73.1504C121.595 73.1504 135.702 87.2579 135.702 104.5C135.702 121.743 121.595 135.85 104.352 135.85Z" fill="white" fill-opacity="0.74"/>
</svg>
